<?xml version="1.0" encoding="UTF-8" standalone="no"?>
<!DOCTYPE svg PUBLIC "-//W3C//DTD SVG 1.1//EN"
 "http://www.w3.org/Graphics/SVG/1.1/DTD/svg11.dtd">
<!-- Generated by graphviz version 2.38.0 (20140413.2041)
 -->
<!-- Title: controllers_diagram Pages: 1 -->
<svg width="630pt" height="573pt"
 viewBox="0.00 0.00 630.00 572.50" xmlns="http://www.w3.org/2000/svg" xmlns:xlink="http://www.w3.org/1999/xlink">
<g id="graph0" class="graph" transform="scale(1 1) rotate(0) translate(242 330.5)">
<title>controllers_diagram</title>
<polygon fill="none" stroke="none" points="-242,242 -242,-330.5 388,-330.5 388,242 -242,242"/>
<!-- _diagram_info -->
<g id="node1" class="node"><title>_diagram_info</title>
<text text-anchor="start" x="-145" y="-216.6" font-family="Times,serif" font-size="13.00">Controllers diagram</text>
<text text-anchor="start" x="-145" y="-202.6" font-family="Times,serif" font-size="13.00">Date: Jan 26 2018 &#45; 08:29</text>
<text text-anchor="start" x="-145" y="-188.6" font-family="Times,serif" font-size="13.00">Migration version: 20160609220802</text>
<text text-anchor="start" x="-145" y="-174.6" font-family="Times,serif" font-size="13.00">Generated by RailRoady 1.5.3</text>
<text text-anchor="start" x="-145" y="-160.6" font-family="Times,serif" font-size="13.00">http://railroady.prestonlee.com</text>
</g>
<!-- SessionsController -->
<g id="node2" class="node"><title>SessionsController</title>
<path fill="none" stroke="black" d="M-225.5,-0.5C-225.5,-0.5 -130.5,-0.5 -130.5,-0.5 -124.5,-0.5 -118.5,-6.5 -118.5,-12.5 -118.5,-12.5 -118.5,-111.5 -118.5,-111.5 -118.5,-117.5 -124.5,-123.5 -130.5,-123.5 -130.5,-123.5 -225.5,-123.5 -225.5,-123.5 -231.5,-123.5 -237.5,-117.5 -237.5,-111.5 -237.5,-111.5 -237.5,-12.5 -237.5,-12.5 -237.5,-6.5 -231.5,-0.5 -225.5,-0.5"/>
<text text-anchor="middle" x="-178" y="-108.3" font-family="Times,serif" font-size="14.00">SessionsController</text>
<polyline fill="none" stroke="black" points="-237.5,-100.5 -118.5,-100.5 "/>
<text text-anchor="start" x="-229.5" y="-85.3" font-family="Times,serif" font-size="14.00">create</text>
<text text-anchor="start" x="-229.5" y="-70.3" font-family="Times,serif" font-size="14.00">destroy</text>
<text text-anchor="start" x="-229.5" y="-55.3" font-family="Times,serif" font-size="14.00">new</text>
<polyline fill="none" stroke="black" points="-237.5,-47.5 -118.5,-47.5 "/>
<polyline fill="none" stroke="black" points="-237.5,-23.5 -118.5,-23.5 "/>
<text text-anchor="start" x="-229.5" y="-8.3" font-family="Times,serif" font-size="14.00">_layout</text>
</g>
<!-- ApplicationController -->
<g id="node3" class="node"><title>ApplicationController</title>
<path fill="none" stroke="black" d="M-226,237.5C-226,237.5 -114,237.5 -114,237.5 -108,237.5 -102,231.5 -102,225.5 -102,225.5 -102,140.5 -102,140.5 -102,134.5 -108,128.5 -114,128.5 -114,128.5 -226,128.5 -226,128.5 -232,128.5 -238,134.5 -238,140.5 -238,140.5 -238,225.5 -238,225.5 -238,231.5 -232,237.5 -226,237.5"/>
<text text-anchor="middle" x="-170" y="143.7" font-family="Times,serif" font-size="14.00">ApplicationController</text>
<polyline fill="none" stroke="black" points="-238,151.5 -102,151.5 "/>
<polyline fill="none" stroke="black" points="-238,175.5 -102,175.5 "/>
<polyline fill="none" stroke="black" points="-238,199.5 -102,199.5 "/>
<text text-anchor="start" x="-230" y="214.7" font-family="Times,serif" font-size="14.00">_layout</text>
<text text-anchor="start" x="-230" y="229.7" font-family="Times,serif" font-size="14.00">logged_in_user</text>
</g>
<!-- PasswordResetsController -->
<g id="node4" class="node"><title>PasswordResetsController</title>
<path fill="none" stroke="black" d="M-73.5,101C-73.5,101 61.5,101 61.5,101 67.5,101 73.5,95 73.5,89 73.5,89 73.5,-85 73.5,-85 73.5,-91 67.5,-97 61.5,-97 61.5,-97 -73.5,-97 -73.5,-97 -79.5,-97 -85.5,-91 -85.5,-85 -85.5,-85 -85.5,89 -85.5,89 -85.5,95 -79.5,101 -73.5,101"/>
<text text-anchor="middle" x="-6" y="-81.8" font-family="Times,serif" font-size="14.00">PasswordResetsController</text>
<polyline fill="none" stroke="black" points="-85.5,-74 73.5,-74 "/>
<text text-anchor="start" x="-77.5" y="-58.8" font-family="Times,serif" font-size="14.00">create</text>
<text text-anchor="start" x="-77.5" y="-43.8" font-family="Times,serif" font-size="14.00">edit</text>
<text text-anchor="start" x="-77.5" y="-28.8" font-family="Times,serif" font-size="14.00">new</text>
<text text-anchor="start" x="-77.5" y="-13.8" font-family="Times,serif" font-size="14.00">update</text>
<polyline fill="none" stroke="black" points="-85.5,-6 73.5,-6 "/>
<polyline fill="none" stroke="black" points="-85.5,18 73.5,18 "/>
<text text-anchor="start" x="-77.5" y="33.2" font-family="Times,serif" font-size="14.00">_layout</text>
<text text-anchor="start" x="-77.5" y="48.2" font-family="Times,serif" font-size="14.00">check_expiration</text>
<text text-anchor="start" x="-77.5" y="63.2" font-family="Times,serif" font-size="14.00">get_user</text>
<text text-anchor="start" x="-77.5" y="78.2" font-family="Times,serif" font-size="14.00">user_params</text>
<text text-anchor="start" x="-77.5" y="93.2" font-family="Times,serif" font-size="14.00">valid_user</text>
</g>
<!-- UsersController -->
<g id="node5" class="node"><title>UsersController</title>
<path fill="none" stroke="black" d="M114.5,101C114.5,101 193.5,101 193.5,101 199.5,101 205.5,95 205.5,89 205.5,89 205.5,-145 205.5,-145 205.5,-151 199.5,-157 193.5,-157 193.5,-157 114.5,-157 114.5,-157 108.5,-157 102.5,-151 102.5,-145 102.5,-145 102.5,89 102.5,89 102.5,95 108.5,101 114.5,101"/>
<text text-anchor="middle" x="154" y="-141.8" font-family="Times,serif" font-size="14.00">UsersController</text>
<polyline fill="none" stroke="black" points="102.5,-134 205.5,-134 "/>
<text text-anchor="start" x="110.5" y="-118.8" font-family="Times,serif" font-size="14.00">create</text>
<text text-anchor="start" x="110.5" y="-103.8" font-family="Times,serif" font-size="14.00">destroy</text>
<text text-anchor="start" x="110.5" y="-88.8" font-family="Times,serif" font-size="14.00">edit</text>
<text text-anchor="start" x="110.5" y="-73.8" font-family="Times,serif" font-size="14.00">followers</text>
<text text-anchor="start" x="110.5" y="-58.8" font-family="Times,serif" font-size="14.00">following</text>
<text text-anchor="start" x="110.5" y="-43.8" font-family="Times,serif" font-size="14.00">index</text>
<text text-anchor="start" x="110.5" y="-28.8" font-family="Times,serif" font-size="14.00">new</text>
<text text-anchor="start" x="110.5" y="-13.8" font-family="Times,serif" font-size="14.00">show</text>
<text text-anchor="start" x="110.5" y="1.2" font-family="Times,serif" font-size="14.00">update</text>
<polyline fill="none" stroke="black" points="102.5,9 205.5,9 "/>
<polyline fill="none" stroke="black" points="102.5,33 205.5,33 "/>
<text text-anchor="start" x="110.5" y="48.2" font-family="Times,serif" font-size="14.00">_layout</text>
<text text-anchor="start" x="110.5" y="63.2" font-family="Times,serif" font-size="14.00">admin_user</text>
<text text-anchor="start" x="110.5" y="78.2" font-family="Times,serif" font-size="14.00">correct_user</text>
<text text-anchor="start" x="110.5" y="93.2" font-family="Times,serif" font-size="14.00">user_params</text>
</g>
<!-- StaticPagesController -->
<g id="node6" class="node"><title>StaticPagesController</title>
<path fill="none" stroke="black" d="M199,-188C199,-188 309,-188 309,-188 315,-188 321,-194 321,-200 321,-200 321,-314 321,-314 321,-320 315,-326 309,-326 309,-326 199,-326 199,-326 193,-326 187,-320 187,-314 187,-314 187,-200 187,-200 187,-194 193,-188 199,-188"/>
<text text-anchor="middle" x="254" y="-310.8" font-family="Times,serif" font-size="14.00">StaticPagesController</text>
<polyline fill="none" stroke="black" points="187,-303 321,-303 "/>
<text text-anchor="start" x="195" y="-287.8" font-family="Times,serif" font-size="14.00">about</text>
<text text-anchor="start" x="195" y="-272.8" font-family="Times,serif" font-size="14.00">contact</text>
<text text-anchor="start" x="195" y="-257.8" font-family="Times,serif" font-size="14.00">help</text>
<text text-anchor="start" x="195" y="-242.8" font-family="Times,serif" font-size="14.00">home</text>
<polyline fill="none" stroke="black" points="187,-235 321,-235 "/>
<polyline fill="none" stroke="black" points="187,-211 321,-211 "/>
<text text-anchor="start" x="195" y="-195.8" font-family="Times,serif" font-size="14.00">_layout</text>
</g>
<!-- AccountActivationsController -->
<g id="node7" class="node"><title>AccountActivationsController</title>
<path fill="none" stroke="black" d="M12,220.5C12,220.5 168,220.5 168,220.5 174,220.5 180,214.5 180,208.5 180,208.5 180,139.5 180,139.5 180,133.5 174,127.5 168,127.5 168,127.5 12,127.5 12,127.5 6,127.5 0,133.5 0,139.5 0,139.5 0,208.5 0,208.5 0,214.5 6,220.5 12,220.5"/>
<text text-anchor="middle" x="90" y="142.7" font-family="Times,serif" font-size="14.00">AccountActivationsController</text>
<polyline fill="none" stroke="black" points="0,150.5 180,150.5 "/>
<text text-anchor="start" x="8" y="165.7" font-family="Times,serif" font-size="14.00">edit</text>
<polyline fill="none" stroke="black" points="0,173.5 180,173.5 "/>
<polyline fill="none" stroke="black" points="0,197.5 180,197.5 "/>
<text text-anchor="start" x="8" y="212.7" font-family="Times,serif" font-size="14.00">_layout</text>
</g>
<!-- RelationshipsController -->
<g id="node8" class="node"><title>RelationshipsController</title>
<path fill="none" stroke="black" d="M250,67C250,67 372,67 372,67 378,67 384,61 384,55 384,55 384,-29 384,-29 384,-35 378,-41 372,-41 372,-41 250,-41 250,-41 244,-41 238,-35 238,-29 238,-29 238,55 238,55 238,61 244,67 250,67"/>
<text text-anchor="middle" x="311" y="-25.8" font-family="Times,serif" font-size="14.00">RelationshipsController</text>
<polyline fill="none" stroke="black" points="238,-18 384,-18 "/>
<text text-anchor="start" x="246" y="-2.8" font-family="Times,serif" font-size="14.00">create</text>
<text text-anchor="start" x="246" y="12.2" font-family="Times,serif" font-size="14.00">destroy</text>
<polyline fill="none" stroke="black" points="238,20 384,20 "/>
<polyline fill="none" stroke="black" points="238,44 384,44 "/>
<text text-anchor="start" x="246" y="59.2" font-family="Times,serif" font-size="14.00">_layout</text>
</g>
<!-- MicropostsController -->
<g id="node9" class="node"><title>MicropostsController</title>
<path fill="none" stroke="black" d="M250,237C250,237 360,237 360,237 366,237 372,231 372,225 372,225 372,111 372,111 372,105 366,99 360,99 360,99 250,99 250,99 244,99 238,105 238,111 238,111 238,225 238,225 238,231 244,237 250,237"/>
<text text-anchor="middle" x="305" y="114.2" font-family="Times,serif" font-size="14.00">MicropostsController</text>
<polyline fill="none" stroke="black" points="238,122 372,122 "/>
<text text-anchor="start" x="246" y="137.2" font-family="Times,serif" font-size="14.00">create</text>
<text text-anchor="start" x="246" y="152.2" font-family="Times,serif" font-size="14.00">destroy</text>
<polyline fill="none" stroke="black" points="238,160 372,160 "/>
<polyline fill="none" stroke="black" points="238,184 372,184 "/>
<text text-anchor="start" x="246" y="199.2" font-family="Times,serif" font-size="14.00">_layout</text>
<text text-anchor="start" x="246" y="214.2" font-family="Times,serif" font-size="14.00">correct_user</text>
<text text-anchor="start" x="246" y="229.2" font-family="Times,serif" font-size="14.00">micropost_params</text>
</g>
</g>
</svg>
