<?xml version="1.0" encoding="UTF-8" standalone="no"?>
<!DOCTYPE svg PUBLIC "-//W3C//DTD SVG 1.1//EN"
 "http://www.w3.org/Graphics/SVG/1.1/DTD/svg11.dtd">
<!-- Generated by graphviz version 2.38.0 (20140413.2041)
 -->
<!-- Title: models_diagram Pages: 1 -->
<svg width="713pt" height="408pt"
 viewBox="0.00 0.00 713.34 408.00" xmlns="http://www.w3.org/2000/svg" xmlns:xlink="http://www.w3.org/1999/xlink">
<g id="graph0" class="graph" transform="scale(1 1) rotate(0) translate(4 404)">
<title>models_diagram</title>
<polygon fill="none" stroke="none" points="-4,4 -4,-404 709.343,-404 709.343,4 -4,4"/>
<!-- _diagram_info -->
<g id="node1" class="node"><title>_diagram_info</title>
<text text-anchor="start" x="8" y="-311.1" font-family="Times,serif" font-size="13.00">Models diagram</text>
<text text-anchor="start" x="8" y="-297.1" font-family="Times,serif" font-size="13.00">Date: Jan 26 2018 &#45; 08:29</text>
<text text-anchor="start" x="8" y="-283.1" font-family="Times,serif" font-size="13.00">Migration version: 20160609220802</text>
<text text-anchor="start" x="8" y="-269.1" font-family="Times,serif" font-size="13.00">Generated by RailRoady 1.5.3</text>
<text text-anchor="start" x="8" y="-255.1" font-family="Times,serif" font-size="13.00">http://railroady.prestonlee.com</text>
</g>
<!-- Relationship -->
<g id="node2" class="node"><title>Relationship</title>
<path fill="none" stroke="black" d="M183.5,-8C183.5,-8 290.5,-8 290.5,-8 296.5,-8 302.5,-14 302.5,-20 302.5,-20 302.5,-102 302.5,-102 302.5,-108 296.5,-114 290.5,-114 290.5,-114 183.5,-114 183.5,-114 177.5,-114 171.5,-108 171.5,-102 171.5,-102 171.5,-20 171.5,-20 171.5,-14 177.5,-8 183.5,-8"/>
<text text-anchor="middle" x="237" y="-98.8" font-family="Times,serif" font-size="14.00">Relationship</text>
<polyline fill="none" stroke="black" points="171.5,-91 302.5,-91 "/>
<text text-anchor="start" x="179.5" y="-75.8" font-family="Times,serif" font-size="14.00">id :INTEGER</text>
<text text-anchor="start" x="179.5" y="-60.8" font-family="Times,serif" font-size="14.00">follower_id :integer</text>
<text text-anchor="start" x="179.5" y="-45.8" font-family="Times,serif" font-size="14.00">followed_id :integer</text>
<text text-anchor="start" x="179.5" y="-30.8" font-family="Times,serif" font-size="14.00">created_at :datetime</text>
<text text-anchor="start" x="179.5" y="-15.8" font-family="Times,serif" font-size="14.00">updated_at :datetime</text>
</g>
<!-- ApplicationRecord -->
<g id="node3" class="node"><title>ApplicationRecord</title>
<ellipse fill="none" stroke="black" cx="628" cy="-286.5" rx="77.1866" ry="18"/>
<text text-anchor="middle" x="628" y="-282.8" font-family="Times,serif" font-size="14.00">ApplicationRecord</text>
</g>
<!-- User -->
<g id="node4" class="node"><title>User</title>
<path fill="none" stroke="black" d="M244,-173.5C244,-173.5 380,-173.5 380,-173.5 386,-173.5 392,-179.5 392,-185.5 392,-185.5 392,-387.5 392,-387.5 392,-393.5 386,-399.5 380,-399.5 380,-399.5 244,-399.5 244,-399.5 238,-399.5 232,-393.5 232,-387.5 232,-387.5 232,-185.5 232,-185.5 232,-179.5 238,-173.5 244,-173.5"/>
<text text-anchor="middle" x="312" y="-384.3" font-family="Times,serif" font-size="14.00">User</text>
<polyline fill="none" stroke="black" points="232,-376.5 392,-376.5 "/>
<text text-anchor="start" x="240" y="-361.3" font-family="Times,serif" font-size="14.00">id :INTEGER</text>
<text text-anchor="start" x="240" y="-346.3" font-family="Times,serif" font-size="14.00">name :varchar</text>
<text text-anchor="start" x="240" y="-331.3" font-family="Times,serif" font-size="14.00">email :varchar</text>
<text text-anchor="start" x="240" y="-316.3" font-family="Times,serif" font-size="14.00">created_at :datetime</text>
<text text-anchor="start" x="240" y="-301.3" font-family="Times,serif" font-size="14.00">updated_at :datetime</text>
<text text-anchor="start" x="240" y="-286.3" font-family="Times,serif" font-size="14.00">password_digest :varchar</text>
<text text-anchor="start" x="240" y="-271.3" font-family="Times,serif" font-size="14.00">remember_digest :varchar</text>
<text text-anchor="start" x="240" y="-256.3" font-family="Times,serif" font-size="14.00">admin :boolean</text>
<text text-anchor="start" x="240" y="-241.3" font-family="Times,serif" font-size="14.00">activation_digest :varchar</text>
<text text-anchor="start" x="240" y="-226.3" font-family="Times,serif" font-size="14.00">activated :boolean</text>
<text text-anchor="start" x="240" y="-211.3" font-family="Times,serif" font-size="14.00">activated_at :datetime</text>
<text text-anchor="start" x="240" y="-196.3" font-family="Times,serif" font-size="14.00">reset_digest :varchar</text>
<text text-anchor="start" x="240" y="-181.3" font-family="Times,serif" font-size="14.00">reset_sent_at :datetime</text>
</g>
<!-- User&#45;&gt;Relationship -->
<g id="edge2" class="edge"><title>User&#45;&gt;Relationship</title>
<path fill="none" stroke="#ec3a0c" d="M225.493,-174.944C224.665,-174.287 223.834,-173.639 223,-173 206.872,-160.658 192.18,-171.955 181,-155 174.34,-144.899 174.541,-134.016 178.582,-123.379"/>
<ellipse fill="none" stroke="#ec3a0c" cx="228.69" cy="-177.595" rx="4.00002" ry="4.00002"/>
<polygon fill="#ec3a0c" stroke="#ec3a0c" points="178.703,-123.127 187.098,-116.073 180.874,-118.623 183.045,-114.119 183.045,-114.119 183.045,-114.119 180.874,-118.623 178.991,-112.165 178.703,-123.127 178.703,-123.127"/>
<text text-anchor="middle" x="235.5" y="-143.8" font-family="Times,serif" font-size="14.00">active_relationships</text>
</g>
<!-- User&#45;&gt;Relationship -->
<g id="edge3" class="edge"><title>User&#45;&gt;Relationship</title>
<path fill="none" stroke="#b2d910" d="M298.225,-165.317C295.895,-156.628 293.175,-148.104 290,-140 287.819,-134.434 285.182,-128.868 282.263,-123.417"/>
<ellipse fill="none" stroke="#b2d910" cx="299.274" cy="-169.458" rx="4.00001" ry="4.00001"/>
<polygon fill="#b2d910" stroke="#b2d910" points="282.061,-123.062 281.027,-112.145 279.588,-118.716 277.116,-114.37 277.116,-114.37 277.116,-114.37 279.588,-118.716 273.204,-116.596 282.061,-123.062 282.061,-123.062"/>
<text text-anchor="middle" x="353" y="-143.8" font-family="Times,serif" font-size="14.00">passive_relationships</text>
</g>
<!-- User&#45;&gt;User -->
<g id="edge4" class="edge"><title>User&#45;&gt;User</title>
<path fill="none" stroke="#d547f2" d="M402.25,-295.091C407.113,-292.99 410,-290.126 410,-286.5 410,-282.874 407.113,-280.01 402.25,-277.909"/>
<polygon fill="#d547f2" stroke="#d547f2" points="401.977,-295.169 391.127,-293.581 397.168,-296.539 392.36,-297.909 392.36,-297.909 392.36,-297.909 397.168,-296.539 393.592,-302.237 401.977,-295.169 401.977,-295.169"/>
<polygon fill="#d547f2" stroke="#d547f2" points="401.977,-277.831 393.592,-270.763 397.168,-276.461 392.36,-275.091 392.36,-275.091 392.36,-275.091 397.168,-276.461 391.127,-279.419 401.977,-277.831 401.977,-277.831"/>
<text text-anchor="middle" x="436.5" y="-282.8" font-family="Times,serif" font-size="14.00">following</text>
</g>
<!-- User&#45;&gt;User -->
<g id="edge5" class="edge"><title>User&#45;&gt;User</title>
<path fill="none" stroke="#95e1ca" d="M402.518,-312.374C435.211,-312.284 463,-303.659 463,-286.5 463,-269.341 435.211,-260.716 402.518,-260.626"/>
<polygon fill="#95e1ca" stroke="#95e1ca" points="402.237,-312.368 392.348,-307.63 397.238,-312.248 392.24,-312.128 392.24,-312.128 392.24,-312.128 397.238,-312.248 392.132,-316.627 402.237,-312.368 402.237,-312.368"/>
<polygon fill="#95e1ca" stroke="#95e1ca" points="402.237,-260.632 392.132,-256.373 397.238,-260.752 392.24,-260.872 392.24,-260.872 392.24,-260.872 397.238,-260.752 392.348,-265.37 402.237,-260.632 402.237,-260.632"/>
<text text-anchor="middle" x="489" y="-282.8" font-family="Times,serif" font-size="14.00">followers</text>
</g>
<!-- Micropost -->
<g id="node5" class="node"><title>Micropost</title>
<path fill="none" stroke="black" d="M389.5,-0.5C389.5,-0.5 496.5,-0.5 496.5,-0.5 502.5,-0.5 508.5,-6.5 508.5,-12.5 508.5,-12.5 508.5,-109.5 508.5,-109.5 508.5,-115.5 502.5,-121.5 496.5,-121.5 496.5,-121.5 389.5,-121.5 389.5,-121.5 383.5,-121.5 377.5,-115.5 377.5,-109.5 377.5,-109.5 377.5,-12.5 377.5,-12.5 377.5,-6.5 383.5,-0.5 389.5,-0.5"/>
<text text-anchor="middle" x="443" y="-106.3" font-family="Times,serif" font-size="14.00">Micropost</text>
<polyline fill="none" stroke="black" points="377.5,-98.5 508.5,-98.5 "/>
<text text-anchor="start" x="385.5" y="-83.3" font-family="Times,serif" font-size="14.00">id :INTEGER</text>
<text text-anchor="start" x="385.5" y="-68.3" font-family="Times,serif" font-size="14.00">content :text</text>
<text text-anchor="start" x="385.5" y="-53.3" font-family="Times,serif" font-size="14.00">user_id :integer</text>
<text text-anchor="start" x="385.5" y="-38.3" font-family="Times,serif" font-size="14.00">created_at :datetime</text>
<text text-anchor="start" x="385.5" y="-23.3" font-family="Times,serif" font-size="14.00">updated_at :datetime</text>
<text text-anchor="start" x="385.5" y="-8.3" font-family="Times,serif" font-size="14.00">picture :varchar</text>
</g>
<!-- User&#45;&gt;Micropost -->
<g id="edge1" class="edge"><title>User&#45;&gt;Micropost</title>
<path fill="none" stroke="#7e38dd" d="M396.74,-185.594C403.416,-175.576 409.636,-165.295 415,-155 418.864,-147.584 422.281,-139.551 425.281,-131.418"/>
<ellipse fill="none" stroke="#7e38dd" cx="394.301" cy="-189.177" rx="4.00002" ry="4.00002"/>
<polygon fill="#7e38dd" stroke="#7e38dd" points="425.322,-131.3 432.861,-123.337 426.966,-126.578 428.611,-121.857 428.611,-121.857 428.611,-121.857 426.966,-126.578 424.361,-120.376 425.322,-131.3 425.322,-131.3"/>
</g>
</g>
</svg>
