<?xml version="1.0" encoding="UTF-8" standalone="no"?>
<!DOCTYPE svg PUBLIC "-//W3C//DTD SVG 1.1//EN"
 "http://www.w3.org/Graphics/SVG/1.1/DTD/svg11.dtd">
<!-- Generated by graphviz version 2.38.0 (20140413.2041)
 -->
<!-- Title: models_diagram Pages: 1 -->
<svg width="608pt" height="173pt"
 viewBox="0.00 0.00 608.34 173.00" xmlns="http://www.w3.org/2000/svg" xmlns:xlink="http://www.w3.org/1999/xlink">
<g id="graph0" class="graph" transform="scale(1 1) rotate(0) translate(4 169)">
<title>models_diagram</title>
<polygon fill="none" stroke="none" points="-4,4 -4,-169 604.343,-169 604.343,4 -4,4"/>
<!-- _diagram_info -->
<g id="node1" class="node"><title>_diagram_info</title>
<text text-anchor="start" x="8" y="-150.6" font-family="Times,serif" font-size="13.00">Models diagram</text>
<text text-anchor="start" x="8" y="-136.6" font-family="Times,serif" font-size="13.00">Date: Jan 26 2018 &#45; 08:29</text>
<text text-anchor="start" x="8" y="-122.6" font-family="Times,serif" font-size="13.00">Migration version: 20160609220802</text>
<text text-anchor="start" x="8" y="-108.6" font-family="Times,serif" font-size="13.00">Generated by RailRoady 1.5.3</text>
<text text-anchor="start" x="8" y="-94.6" font-family="Times,serif" font-size="13.00">http://railroady.prestonlee.com</text>
</g>
<!-- Relationship -->
<g id="node2" class="node"><title>Relationship</title>
<ellipse fill="none" stroke="black" cx="193" cy="-18" rx="55.4913" ry="18"/>
<text text-anchor="middle" x="193" y="-14.3" font-family="Times,serif" font-size="14.00">Relationship</text>
</g>
<!-- ApplicationRecord -->
<g id="node3" class="node"><title>ApplicationRecord</title>
<ellipse fill="none" stroke="black" cx="523" cy="-126" rx="77.1866" ry="18"/>
<text text-anchor="middle" x="523" y="-122.3" font-family="Times,serif" font-size="14.00">ApplicationRecord</text>
</g>
<!-- User -->
<g id="node4" class="node"><title>User</title>
<ellipse fill="none" stroke="black" cx="259" cy="-126" rx="27.0966" ry="18"/>
<text text-anchor="middle" x="259" y="-122.3" font-family="Times,serif" font-size="14.00">User</text>
</g>
<!-- User&#45;&gt;Relationship -->
<g id="edge2" class="edge"><title>User&#45;&gt;Relationship</title>
<path fill="none" stroke="#29c5f2" d="M242.823,-103.328C237.197,-97.1733 230.418,-91.0507 223,-87 185.284,-66.4036 155.413,-102.095 128,-69 117.405,-56.2086 129.966,-44.6918 146.778,-35.9444"/>
<ellipse fill="none" stroke="#29c5f2" cx="245.441" cy="-106.381" rx="4.00002" ry="4.00002"/>
<polygon fill="#29c5f2" stroke="#29c5f2" points="146.824,-35.9222 157.788,-35.6949 151.34,-33.7763 155.857,-31.6304 155.857,-31.6304 155.857,-31.6304 151.34,-33.7763 153.925,-27.5659 146.824,-35.9222 146.824,-35.9222"/>
<text text-anchor="middle" x="182.5" y="-57.8" font-family="Times,serif" font-size="14.00">active_relationships</text>
</g>
<!-- User&#45;&gt;Relationship -->
<g id="edge3" class="edge"><title>User&#45;&gt;Relationship</title>
<path fill="none" stroke="#27b8c8" d="M255.046,-99.9735C251.885,-85.5898 246.375,-67.7142 237,-54 233.764,-49.266 229.695,-44.8615 225.348,-40.8845"/>
<ellipse fill="none" stroke="#27b8c8" cx="255.863" cy="-104.059" rx="4.00001" ry="4.00001"/>
<polygon fill="#27b8c8" stroke="#27b8c8" points="225.02,-40.6118 220.22,-30.7524 221.179,-37.4104 217.339,-34.2091 217.339,-34.2091 217.339,-34.2091 221.179,-37.4104 214.458,-37.6658 225.02,-40.6118 225.02,-40.6118"/>
<text text-anchor="middle" x="303" y="-57.8" font-family="Times,serif" font-size="14.00">passive_relationships</text>
</g>
<!-- User&#45;&gt;User -->
<g id="edge4" class="edge"><title>User&#45;&gt;User</title>
<path fill="none" stroke="#d2a916" d="M295.359,-131.426C300.696,-130.571 304.298,-128.763 304.298,-126 304.298,-123.237 300.696,-121.429 295.359,-120.574"/>
<polygon fill="#d2a916" stroke="#d2a916" points="295.054,-131.442 284.833,-127.47 290.061,-131.703 285.067,-131.963 285.067,-131.963 285.067,-131.963 290.061,-131.703 285.302,-136.457 295.054,-131.442 295.054,-131.442"/>
<polygon fill="#d2a916" stroke="#d2a916" points="295.054,-120.558 285.302,-115.543 290.061,-120.297 285.067,-120.037 285.067,-120.037 285.067,-120.037 290.061,-120.297 284.833,-124.53 295.054,-120.558 295.054,-120.558"/>
<text text-anchor="middle" x="330.798" y="-122.3" font-family="Times,serif" font-size="14.00">following</text>
</g>
<!-- User&#45;&gt;User -->
<g id="edge5" class="edge"><title>User&#45;&gt;User</title>
<path fill="none" stroke="#66ee57" d="M292.852,-136.54C322.187,-140.304 357.298,-136.79 357.298,-126 357.298,-115.21 322.187,-111.696 292.852,-115.46"/>
<polygon fill="#66ee57" stroke="#66ee57" points="292.654,-136.508 283.504,-130.464 287.718,-135.707 282.783,-134.906 282.783,-134.906 282.783,-134.906 287.718,-135.707 282.062,-139.347 292.654,-136.508 292.654,-136.508"/>
<polygon fill="#66ee57" stroke="#66ee57" points="292.654,-115.492 282.062,-112.653 287.718,-116.293 282.783,-117.094 282.783,-117.094 282.783,-117.094 287.718,-116.293 283.504,-121.536 292.654,-115.492 292.654,-115.492"/>
<text text-anchor="middle" x="383.298" y="-122.3" font-family="Times,serif" font-size="14.00">followers</text>
</g>
<!-- Micropost -->
<g id="node5" class="node"><title>Micropost</title>
<ellipse fill="none" stroke="black" cx="390" cy="-18" rx="47.3916" ry="18"/>
<text text-anchor="middle" x="390" y="-14.3" font-family="Times,serif" font-size="14.00">Micropost</text>
</g>
<!-- User&#45;&gt;Micropost -->
<g id="edge1" class="edge"><title>User&#45;&gt;Micropost</title>
<path fill="none" stroke="#6ec5c0" d="M290.635,-114.309C313.619,-105.228 344.213,-90.2575 365,-69 371.535,-62.3169 376.692,-53.5854 380.582,-45.2926"/>
<ellipse fill="none" stroke="#6ec5c0" cx="286.894" cy="-115.737" rx="4.00001" ry="4.00001"/>
<polygon fill="#6ec5c0" stroke="#6ec5c0" points="380.659,-45.1104 388.714,-37.6697 382.616,-40.5094 384.573,-35.9083 384.573,-35.9083 384.573,-35.9083 382.616,-40.5094 380.432,-34.1469 380.659,-45.1104 380.659,-45.1104"/>
</g>
</g>
</svg>
